<svg width="30" height="30" viewBox="0 0 30 30" fill="none" xmlns="http://www.w3.org/2000/svg">
<rect width="30" height="30" rx="15" fill="#43A047"/>
<path d="M10.772 5.439L11.849 5.095C12.857 4.773 13.935 5.294 14.367 6.312L15.227 8.34C15.602 9.223 15.394 10.262 14.713 10.908L12.82 12.706C12.9367 13.782 13.298 14.841 13.904 15.883C14.4803 16.8909 15.2524 17.7732 16.175 18.478L18.451 17.718C19.313 17.431 20.252 17.762 20.781 18.539L22.013 20.349C22.629 21.253 22.518 22.499 21.755 23.265L20.937 24.086C20.123 24.903 18.961 25.2 17.885 24.864C15.3463 24.072 13.012 21.721 10.882 17.811C8.74933 13.8943 7.99666 10.5717 8.62399 7.843C8.88799 6.695 9.70599 5.78 10.774 5.439" fill="white"/>
</svg>
