<svg xmlns="http://www.w3.org/2000/svg" xmlns:xlink="http://www.w3.org/1999/xlink" width="23.074" height="23.025" viewBox="0 0 23.074 23.025">
  <defs>
    <clipPath id="clip-path">
      <rect id="Rectangle_550" data-name="Rectangle 550" width="23.074" height="23.025" fill="#2e3446"/>
    </clipPath>
  </defs>
  <g id="Group_1527" data-name="Group 1527" clip-path="url(#clip-path)">
    <path id="Path_1539" data-name="Path 1539" d="M11.525,0A11.512,11.512,0,1,1,0,11.511,11.509,11.509,0,0,1,11.525,0M5.261,17.8c.729,0,1.4-.023,2.066.009a1.169,1.169,0,0,0,.957-.4q2.925-2.953,5.876-5.881c.474-.472.966-.928,1.385-1.329L12.937,7.527a.411.411,0,0,0-.089.054Q9.169,11.249,5.5,14.923a.651.651,0,0,0-.224.356c-.02.815-.01,1.63-.01,2.517M16.431,9.318c.378-.4.768-.807,1.154-1.218a.679.679,0,0,0,.035-1.024c-.539-.568-1.1-1.121-1.665-1.658a.619.619,0,0,0-.894-.024c-.458.41-.887.851-1.311,1.262l2.681,2.662" transform="translate(0 -0.001)" fill="#2e3446"/>
  </g>
</svg>
