<svg width="30" height="30" viewBox="0 0 30 30" fill="none" xmlns="http://www.w3.org/2000/svg">
<rect width="30" height="30" rx="15" fill="#FF0000"/>
<path d="M23 8C23.2652 8 23.5196 8.10536 23.7071 8.29289C23.8946 8.48043 24 8.73478 24 9C24 9.26522 23.8946 9.51957 23.7071 9.70711C23.5196 9.89464 23.2652 10 23 10H22L21.997 10.071L21.064 23.142C21.0281 23.6466 20.8023 24.1188 20.4321 24.4636C20.0619 24.8083 19.5749 25 19.069 25H10.93C10.4241 25 9.93707 24.8083 9.56688 24.4636C9.1967 24.1188 8.97092 23.6466 8.935 23.142L8.002 10.072L8 10H7C6.73478 10 6.48043 9.89464 6.29289 9.70711C6.10536 9.51957 6 9.26522 6 9C6 8.73478 6.10536 8.48043 6.29289 8.29289C6.48043 8.10536 6.73478 8 7 8H23ZM17 5C17.2652 5 17.5196 5.10536 17.7071 5.29289C17.8946 5.48043 18 5.73478 18 6C18 6.26522 17.8946 6.51957 17.7071 6.70711C17.5196 6.89464 17.2652 7 17 7H13C12.7348 7 12.4804 6.89464 12.2929 6.70711C12.1054 6.51957 12 6.26522 12 6C12 5.73478 12.1054 5.48043 12.2929 5.29289C12.4804 5.10536 12.7348 5 13 5H17Z" fill="white"/>
</svg>
